<svg width="32" height="31" viewBox="0 0 32 31" fill="none" xmlns="http://www.w3.org/2000/svg">
<path d="M15.7228 4.50004L3.63447 14.0667V27.4583H12.269V20.625H19.1766V27.4583H27.8111V14.8884C27.8112 14.6322 27.753 14.3793 27.6409 14.1483C27.5288 13.9174 27.3657 13.7143 27.1635 13.5542L15.7228 4.50004ZM15.7228 0.125L29.3204 10.8875C29.9268 11.3673 30.4163 11.9759 30.7529 12.6681C31.0895 13.3603 31.2645 14.1186 31.2649 14.8867V27.4583C31.2649 28.3645 30.901 29.2335 30.2533 29.8743C29.6056 30.515 28.7271 30.875 27.8111 30.875H3.63447C2.71846 30.875 1.83997 30.515 1.19226 29.8743C0.544546 29.2335 0.180664 28.3645 0.180664 27.4583V14.0667C0.180729 13.5546 0.297159 13.0491 0.521344 12.5875C0.74553 12.1259 1.07174 11.7201 1.47584 11.4L15.7228 0.125Z" fill="white"/>
</svg>
