<svg width="35" height="33" viewBox="0 0 35 33" fill="none" xmlns="http://www.w3.org/2000/svg">
<path d="M24.6305 0.416626H10.8153C5.10095 0.416626 0.453857 5.01375 0.453857 10.6666V31.1666C0.453857 31.6197 0.635798 32.0542 0.959655 32.3746C1.28351 32.695 1.72276 32.875 2.18076 32.875H24.6305C30.3448 32.875 34.9919 28.2778 34.9919 22.625V10.6666C34.9919 5.01375 30.3448 0.416626 24.6305 0.416626ZM31.5381 22.625C31.5381 26.3935 28.44 29.4583 24.6305 29.4583H3.90766V10.6666C3.90766 6.89804 7.00572 3.83329 10.8153 3.83329H24.6305C28.44 3.83329 31.5381 6.89804 31.5381 10.6666V22.625Z" fill="white" />
</svg>
