<svg width="37" height="34" viewBox="0 0 37 34" fill="none" xmlns="http://www.w3.org/2000/svg">
<path d="M18.4721 24.5438C21.7368 24.5438 24.3833 21.8799 24.3833 18.5938C24.3833 15.3077 21.7368 12.6438 18.4721 12.6438C15.2075 12.6438 12.561 15.3077 12.561 18.5938C12.561 21.8799 15.2075 24.5438 18.4721 24.5438Z" fill="#9104FF"/>
<path d="M12.9306 0L9.55014 3.71875H3.69444C1.6625 3.71875 0 5.39219 0 7.4375V29.75C0 31.7953 1.6625 33.4688 3.69444 33.4688H33.25C35.2819 33.4688 36.9444 31.7953 36.9444 29.75V7.4375C36.9444 5.39219 35.2819 3.71875 33.25 3.71875H27.3943L24.0139 0H12.9306ZM18.4722 27.8906C13.3739 27.8906 9.23611 23.7256 9.23611 18.5938C9.23611 13.4619 13.3739 9.29688 18.4722 9.29688C23.5706 9.29688 27.7083 13.4619 27.7083 18.5938C27.7083 23.7256 23.5706 27.8906 18.4722 27.8906Z" fill="#9104FF"/>
</svg>
