<svg width="36" height="35" viewBox="0 0 36 35" fill="none" xmlns="http://www.w3.org/2000/svg">
<path d="M9 13.9219C9 14.4183 9.20319 14.8944 9.56487 15.2455C9.92654 15.5965 10.4171 15.7937 10.9286 15.7937C11.4401 15.7937 11.9306 15.5965 12.2923 15.2455C12.654 14.8944 12.8571 14.4183 12.8571 13.9219C12.8571 13.4254 12.654 12.9493 12.2923 12.5983C11.9306 12.2472 11.4401 12.05 10.9286 12.05C10.4171 12.05 9.92654 12.2472 9.56487 12.5983C9.20319 12.9493 9 13.4254 9 13.9219ZM23.1429 13.9219C23.1429 14.4183 23.346 14.8944 23.7077 15.2455C24.0694 15.5965 24.5599 15.7937 25.0714 15.7937C25.5829 15.7937 26.0735 15.5965 26.4351 15.2455C26.7968 14.8944 27 14.4183 27 13.9219C27 13.4254 26.7968 12.9493 26.4351 12.5983C26.0735 12.2472 25.5829 12.05 25.0714 12.05C24.5599 12.05 24.0694 12.2472 23.7077 12.5983C23.346 12.9493 23.1429 13.4254 23.1429 13.9219ZM18 0C8.05982 0 0 7.82277 0 17.4706C0 27.1184 8.05982 34.9412 18 34.9412C27.9402 34.9412 36 27.1184 36 17.4706C36 7.82277 27.9402 0 18 0ZM28.567 27.7268C27.1929 29.0605 25.5938 30.1056 23.8138 30.8387C21.9777 31.5952 20.021 31.9774 18 31.9774C15.979 31.9774 14.0223 31.5952 12.1821 30.8387C10.4049 30.1102 8.7906 29.0533 7.42902 27.7268C6.05491 26.3931 4.97813 24.841 4.22277 23.1134C3.44732 21.3313 3.05357 19.4321 3.05357 17.4706C3.05357 15.509 3.44732 13.6099 4.22679 11.8238C4.97735 10.0989 6.06631 8.53205 7.43304 7.21052C8.80714 5.87682 10.4062 4.83171 12.1862 4.09857C14.0223 3.34593 15.979 2.96376 18 2.96376C20.021 2.96376 21.9777 3.34593 23.8179 4.10247C25.5951 4.83096 27.2094 5.88789 28.571 7.21442C29.9451 8.54811 31.0219 10.1002 31.7772 11.8277C32.5527 13.6099 32.9464 15.509 32.9464 17.4706C32.9464 19.4321 32.5527 21.3313 31.7732 23.1173C31.0236 24.8416 29.9345 26.4073 28.567 27.7268ZM24.1071 18.2895H22.1746C22.0058 18.2895 21.8612 18.4143 21.8491 18.5781C21.6964 20.5084 20.029 22.0332 18 22.0332C15.971 22.0332 14.2996 20.5084 14.1509 18.5781C14.1388 18.4143 13.9942 18.2895 13.8254 18.2895H11.8929C11.8493 18.2895 11.8061 18.298 11.766 18.3147C11.7259 18.3313 11.6898 18.3557 11.6597 18.3863C11.6296 18.417 11.6063 18.4532 11.5911 18.4929C11.5759 18.5326 11.5692 18.5748 11.5714 18.6171C11.7482 21.9045 14.5647 24.529 18 24.529C21.4353 24.529 24.2518 21.9045 24.4286 18.6171C24.4308 18.5748 24.4241 18.5326 24.4089 18.4929C24.3937 18.4532 24.3704 18.417 24.3403 18.3863C24.3102 18.3557 24.2741 18.3313 24.234 18.3147C24.1939 18.298 24.1507 18.2895 24.1071 18.2895Z" fill="#9104FF"/>
</svg>
