<svg width="42" height="31" viewBox="0 0 42 31" fill="none" xmlns="http://www.w3.org/2000/svg">
<path d="M18.1325 30.875C18.1325 30.875 15.5421 30.875 15.5421 28.3125C15.5421 25.75 18.1325 18.0625 28.4939 18.0625C38.8553 18.0625 41.4456 25.75 41.4456 28.3125C41.4456 30.875 38.8553 30.875 38.8553 30.875H18.1325ZM28.4939 15.5C30.5549 15.5 32.5315 14.6901 33.9888 13.2484C35.4462 11.8067 36.2649 9.85135 36.2649 7.8125C36.2649 5.77365 35.4462 3.8183 33.9888 2.37662C32.5315 0.934931 30.5549 0.125 28.4939 0.125C26.4329 0.125 24.4563 0.934931 22.9989 2.37662C21.5416 3.8183 20.7228 5.77365 20.7228 7.8125C20.7228 9.85135 21.5416 11.8067 22.9989 13.2484C24.4563 14.6901 26.4329 15.5 28.4939 15.5Z" fill="white" />
<path fill-rule="evenodd" clip-rule="evenodd" d="M13.5113 30.875C13.1273 30.075 12.9358 29.1979 12.9518 28.3125C12.9518 24.8403 14.7132 21.2656 17.9667 18.78C16.3428 18.285 14.6509 18.043 12.9518 18.0625C2.59035 18.0625 0 25.75 0 28.3125C0 30.875 2.59035 30.875 2.59035 30.875H13.5113Z" fill="white" />
<path d="M11.6565 15.5C13.3741 15.5 15.0212 14.8251 16.2357 13.6237C17.4502 12.4222 18.1324 10.7928 18.1324 9.09375C18.1324 7.39471 17.4502 5.76525 16.2357 4.56385C15.0212 3.36244 13.3741 2.6875 11.6565 2.6875C9.93904 2.6875 8.29187 3.36244 7.07741 4.56385C5.86294 5.76525 5.18066 7.39471 5.18066 9.09375C5.18066 10.7928 5.86294 12.4222 7.07741 13.6237C8.29187 14.8251 9.93904 15.5 11.6565 15.5Z" fill="white" />
</svg>
