<svg width="32" height="8" viewBox="0 0 32 8" fill="none" xmlns="http://www.w3.org/2000/svg">
<path d="M4 7.6C2.93913 7.6 1.92172 7.19964 1.17157 6.487C0.421427 5.77437 0 4.80782 0 3.8C0 2.79218 0.421427 1.82563 1.17157 1.11299C1.92172 0.400357 2.93913 0 4 0C5.06087 0 6.07828 0.400357 6.82843 1.11299C7.57857 1.82563 8 2.79218 8 3.8C8 4.80782 7.57857 5.77437 6.82843 6.487C6.07828 7.19964 5.06087 7.6 4 7.6ZM16 7.6C14.9391 7.6 13.9217 7.19964 13.1716 6.487C12.4214 5.77437 12 4.80782 12 3.8C12 2.79218 12.4214 1.82563 13.1716 1.11299C13.9217 0.400357 14.9391 0 16 0C17.0609 0 18.0783 0.400357 18.8284 1.11299C19.5786 1.82563 20 2.79218 20 3.8C20 4.80782 19.5786 5.77437 18.8284 6.487C18.0783 7.19964 17.0609 7.6 16 7.6ZM28 7.6C26.9391 7.6 25.9217 7.19964 25.1716 6.487C24.4214 5.77437 24 4.80782 24 3.8C24 2.79218 24.4214 1.82563 25.1716 1.11299C25.9217 0.400357 26.9391 0 28 0C29.0609 0 30.0783 0.400357 30.8284 1.11299C31.5786 1.82563 32 2.79218 32 3.8C32 4.80782 31.5786 5.77437 30.8284 6.487C30.0783 7.19964 29.0609 7.6 28 7.6Z" fill="black"/>
</svg>
