<svg width="40" height="28" viewBox="0 0 40 28" fill="none" xmlns="http://www.w3.org/2000/svg">
<path fill-rule="evenodd" clip-rule="evenodd" d="M37.3851 18.9794C29.8617 27.3314 16.5108 34.2497 2.35262 18.8688C-0.116292 16.1867 -0.291121 12.0937 2.10424 9.34571C5.08257 5.92892 8.98483 2.73526 13.4953 1.11334C20.3812 -1.36277 28.6847 -0.175601 37.2822 9.47353C39.7058 12.1935 39.8233 16.2725 37.3851 18.9794ZM19.7776 22.9508C23.497 22.9508 26.5122 18.9434 26.5122 14C26.5122 9.05661 23.497 5.04919 19.7776 5.04919C16.0581 5.04919 13.043 9.05661 13.043 14C13.043 18.9434 16.0581 22.9508 19.7776 22.9508Z" fill="#9104FF"/>
<ellipse cx="19.9504" cy="13.7704" rx="2.76292" ry="3.67213" fill="#9104FF"/>
</svg>
