<svg width="40" height="34" viewBox="0 0 40 34" fill="none" xmlns="http://www.w3.org/2000/svg">
<path d="M11.893 13.4415C13.2157 13.304 14.2388 13.5433 14.6045 13.7248C14.7666 13.8122 14.9446 13.8661 15.1279 13.8834C15.3112 13.9007 15.4962 13.881 15.6717 13.8255C15.8473 13.77 16.0099 13.6798 16.15 13.5602C16.29 13.4406 16.4046 13.2941 16.487 13.1294C16.5693 12.9647 16.6178 12.7852 16.6294 12.6014C16.641 12.4176 16.6156 12.2334 16.5547 12.0596C16.4938 11.8858 16.3986 11.726 16.2747 11.5898C16.1509 11.4535 16.0009 11.3435 15.8338 11.2662C14.8685 10.7822 13.2817 10.532 11.607 10.708C8.967 10.983 6.25 13.2765 6.25 17.0247C6.25 20.8335 9.1485 23.3498 12.575 23.3498C14.17 23.3498 15.6 22.6017 16.4167 21.829C17.1373 21.147 17.25 20.2422 17.25 19.6757V17.0247C17.25 16.6601 17.1051 16.3103 16.8473 16.0525C16.5894 15.7946 16.2397 15.6497 15.875 15.6497H13.6557C13.2911 15.6497 12.9413 15.7946 12.6835 16.0525C12.4256 16.3103 12.2807 16.6601 12.2807 17.0247C12.2807 17.3894 12.4256 17.7392 12.6835 17.997C12.9413 18.2549 13.2911 18.3997 13.6557 18.3997H14.5V19.6757C14.4999 19.7412 14.4944 19.8065 14.4835 19.871C13.9481 20.3228 13.2753 20.5797 12.575 20.5998C10.5648 20.5998 9 19.211 9 17.0247C9 14.7752 10.5592 13.5817 11.893 13.4415ZM22.75 12.0775C22.75 11.7128 22.6051 11.3631 22.3473 11.1052C22.0894 10.8474 21.7397 10.7025 21.375 10.7025C21.0103 10.7025 20.6606 10.8474 20.4027 11.1052C20.1449 11.3631 20 11.7128 20 12.0775V21.9775C20 22.3422 20.1449 22.6919 20.4027 22.9498C20.6606 23.2076 21.0103 23.3525 21.375 23.3525C21.7397 23.3525 22.0894 23.2076 22.3473 22.9498C22.6051 22.6919 22.75 22.3422 22.75 21.9775V12.0775ZM26.875 10.7025C26.5103 10.7025 26.1606 10.8474 25.9027 11.1052C25.6449 11.3631 25.5 11.7128 25.5 12.0775V21.9775C25.5 22.3422 25.6449 22.6919 25.9027 22.9498C26.1606 23.2076 26.5103 23.3525 26.875 23.3525C27.2397 23.3525 27.5894 23.2076 27.8473 22.9498C28.1051 22.6919 28.25 22.3422 28.25 21.9775V18.3915L31.0083 18.375C31.3729 18.3728 31.7218 18.2258 31.9781 17.9664C32.2344 17.707 32.3772 17.3564 32.375 16.9918C32.3728 16.6271 32.2258 16.2782 31.9664 16.0219C31.707 15.7656 31.3564 15.6228 30.9917 15.625L28.25 15.6415V13.4497H32.375C32.7397 13.4497 33.0894 13.3049 33.3473 13.047C33.6051 12.7892 33.75 12.4394 33.75 12.0747C33.75 11.7101 33.6051 11.3603 33.3473 11.1025C33.0894 10.8446 32.7397 10.6997 32.375 10.6997H26.875V10.7025ZM7.625 0.5C5.80164 0.5 4.05295 1.22433 2.76364 2.51364C1.47433 3.80295 0.75 5.55164 0.75 7.375V26.625C0.75 28.4484 1.47433 30.197 2.76364 31.4864C4.05295 32.7757 5.80164 33.5 7.625 33.5H32.375C34.1984 33.5 35.947 32.7757 37.2364 31.4864C38.5257 30.197 39.25 28.4484 39.25 26.625V7.375C39.25 5.55164 38.5257 3.80295 37.2364 2.51364C35.947 1.22433 34.1984 0.5 32.375 0.5H7.625ZM3.5 7.375C3.5 6.28098 3.9346 5.23177 4.70818 4.45818C5.48177 3.6846 6.53098 3.25 7.625 3.25H32.375C33.469 3.25 34.5182 3.6846 35.2918 4.45818C36.0654 5.23177 36.5 6.28098 36.5 7.375V26.625C36.5 27.719 36.0654 28.7682 35.2918 29.5418C34.5182 30.3154 33.469 30.75 32.375 30.75H7.625C6.53098 30.75 5.48177 30.3154 4.70818 29.5418C3.9346 28.7682 3.5 27.719 3.5 26.625V7.375Z" fill="#9104FF"/>
</svg>
