<svg width="22" height="33" viewBox="0 0 22 33" fill="none" xmlns="http://www.w3.org/2000/svg">
<path d="M17.1111 7.425C17.1111 4.08368 14.3751 1.375 11 1.375C7.62495 1.375 4.88892 4.08368 4.88892 7.425V14.9875C4.88892 18.3288 7.62495 21.0375 11 21.0375C14.3751 21.0375 17.1111 18.3288 17.1111 14.9875V7.425Z" stroke="#9104FF" stroke-width="2" stroke-linecap="round" stroke-linejoin="round"/>
<path d="M20.1666 22.9917C19.0208 24.2806 17.6105 25.3127 16.0297 26.019C14.449 26.7253 12.7342 27.0896 10.9999 27.0875C9.26563 27.0896 7.55085 26.7253 5.97011 26.019C4.38936 25.3127 2.97901 24.2806 1.83325 22.9917" stroke="#9104FF" stroke-width="2" stroke-linecap="round" stroke-linejoin="round"/>
<path d="M11 27.0875V31.625" stroke="#9104FF" stroke-width="2" stroke-linecap="round" stroke-linejoin="round"/>
<path d="M7.94458 31.625H14.0557" stroke="#9104FF" stroke-width="2" stroke-linecap="round" stroke-linejoin="round"/>
</svg>
