<svg width="35" height="34" viewBox="0 0 35 34" fill="none" xmlns="http://www.w3.org/2000/svg">
<path d="M10.0899 2.97004L7.62045 0.527124C3.47589 3.65337 0.747381 8.47087 0.505615 13.9375H3.95942C4.08175 11.7711 4.69651 9.65976 5.75793 7.76087C6.81936 5.86197 8.3001 4.22439 10.0899 2.97004ZM31.4862 13.9375H34.94C34.681 8.47087 31.9525 3.65337 27.8252 0.527124L25.373 2.97004C27.1552 4.23057 28.6293 5.86996 29.6872 7.76783C30.745 9.66571 31.3598 11.7739 31.4862 13.9375ZM28.0842 14.7917C28.0842 9.54712 25.2521 5.15671 20.3132 3.99504V2.83337C20.3132 1.41546 19.1562 0.270874 17.7228 0.270874C16.2895 0.270874 15.1325 1.41546 15.1325 2.83337V3.99504C10.1763 5.15671 7.36142 9.53004 7.36142 14.7917V23.3334L3.90761 26.75V28.4584H31.538V26.75L28.0842 23.3334V14.7917ZM17.7228 33.5834C17.9646 33.5834 18.1891 33.5663 18.4136 33.515C19.5361 33.2759 20.4513 32.5242 20.9003 31.4992C21.073 31.0892 21.1594 30.645 21.1594 30.1667H14.2518C14.269 32.0459 15.806 33.5834 17.7228 33.5834Z" fill="white" />
</svg>
