<svg width="42" height="41" viewBox="0 0 42 41" fill="none" xmlns="http://www.w3.org/2000/svg">
<path d="M19.9815 28.6999C23.0335 28.6999 25.5076 26.2524 25.5076 23.2333C25.5076 20.2141 23.0335 17.7666 19.9815 17.7666C16.9296 17.7666 14.4554 20.2141 14.4554 23.2333C14.4554 26.2524 16.9296 28.6999 19.9815 28.6999Z" fill="white" />
<path d="M15.4916 6.83325L12.3314 10.2499H6.85712C4.95753 10.2499 3.40332 11.7874 3.40332 13.6666V34.1666C3.40332 36.0458 4.95753 37.5833 6.85712 37.5833H34.4876C36.3871 37.5833 37.9414 36.0458 37.9414 34.1666V13.6666C37.9414 11.7874 36.3871 10.2499 34.4876 10.2499H29.0133L25.853 6.83325H15.4916ZM20.6723 32.4583C15.9061 32.4583 12.0378 28.6316 12.0378 23.9166C12.0378 19.2016 15.9061 15.3749 20.6723 15.3749C25.4386 15.3749 29.3069 19.2016 29.3069 23.9166C29.3069 28.6316 25.4386 32.4583 20.6723 32.4583Z" fill="white" />
</svg>
