<svg width="39" height="39" viewBox="0 0 39 39" fill="none" xmlns="http://www.w3.org/2000/svg">
<path d="M15.8373 1.56299V6.68799L13.2469 7.96924L9.36139 4.12549L4.18069 9.25049L8.06621 13.0942L6.77104 15.6567H1.59033V23.3442H6.77104L8.06621 25.9067L4.18069 29.7505L9.36139 34.8755L13.2469 31.0317L15.8373 32.313V37.438H23.6083V32.313L26.1987 31.0317L30.0842 34.8755L35.2649 29.7505L31.3794 25.9067L32.6746 23.3442H37.8553V15.6567H32.6746L31.3794 13.0942L35.2649 9.25049L30.0842 4.12549L26.1987 7.96924L23.6083 6.68799V1.56299H15.8373Z" stroke="white" stroke-opacity="0.67" stroke-width="2" stroke-linecap="round" stroke-linejoin="round"/>
<path d="M19.7228 24.6255C22.584 24.6255 24.9035 22.3309 24.9035 19.5005C24.9035 16.67 22.584 14.3755 19.7228 14.3755C16.8616 14.3755 14.5421 16.67 14.5421 19.5005C14.5421 22.3309 16.8616 24.6255 19.7228 24.6255Z" stroke="white" stroke-opacity="0.67" stroke-width="2" stroke-linecap="round" stroke-linejoin="round"/>
</svg>
